<svg width="27" height="30" viewBox="0 0 27 30" fill="none" xmlns="http://www.w3.org/2000/svg">
<path d="M21.3333 10.6667C24.2789 10.6667 26.6667 8.27885 26.6667 5.33333C26.6667 2.38781 24.2789 0 21.3333 0C18.3878 0 16 2.38781 16 5.33333C16 5.83629 16.0696 6.32299 16.1998 6.78432L9.12204 10.913C8.15555 9.93753 6.815 9.33333 5.33333 9.33333C2.38781 9.33333 0 11.7211 0 14.6667C0 17.6122 2.38781 20 5.33333 20C6.815 20 8.15555 19.3958 9.12204 18.4204L16.1998 22.549C16.0696 23.0103 16 23.497 16 24C16 26.9455 18.3878 29.3333 21.3333 29.3333C24.2789 29.3333 26.6667 26.9455 26.6667 24C26.6667 21.0545 24.2789 18.6667 21.3333 18.6667C19.8517 18.6667 18.5111 19.2709 17.5446 20.2463L10.4669 16.1177C10.597 15.6563 10.6667 15.1696 10.6667 14.6667C10.6667 14.1637 10.597 13.677 10.4669 13.2157L17.5446 9.08702C18.5111 10.0625 19.8517 10.6667 21.3333 10.6667Z" fill="white"/>
</svg>
