<svg width="30" height="30" viewBox="0 0 30 30" fill="none" xmlns="http://www.w3.org/2000/svg">
<path fill-rule="evenodd" clip-rule="evenodd" d="M14.6667 0C6.56649 0 0 6.56649 0 14.6667C0 22.7668 6.56649 29.3333 14.6667 29.3333C22.7668 29.3333 29.3333 22.7668 29.3333 14.6667C29.3333 6.56649 22.7668 0 14.6667 0ZM21.5075 7.82581C19.962 6.28029 17.4562 6.28029 15.9107 7.82581C15.39 8.34651 15.39 9.19072 15.9107 9.71142C16.4314 10.2321 17.2756 10.2321 17.7963 9.71143C18.3004 9.2073 19.1178 9.2073 19.6219 9.71143C20.126 10.2155 20.126 11.0329 19.6219 11.537L15.9107 15.2482C15.6176 15.5413 15.22 15.6648 14.834 15.616C14.1035 15.5236 13.4363 16.0409 13.3439 16.7714C13.2514 17.502 13.7688 18.1691 14.4993 18.2616C15.6678 18.4094 16.8957 18.0344 17.7963 17.1338L21.5075 13.4226C23.053 11.8771 23.053 9.37133 21.5075 7.82581ZM14.834 11.0718C13.6655 10.9239 12.4376 11.2989 11.537 12.1995L7.82581 15.9107C6.28029 17.4562 6.28029 19.962 7.82581 21.5075C9.37133 23.053 11.8771 23.053 13.4226 21.5075C13.9433 20.9868 13.9433 20.1426 13.4226 19.6219C12.9019 19.1012 12.0577 19.1012 11.537 19.6219C11.0329 20.126 10.2155 20.126 9.71142 19.6219C9.2073 19.1178 9.2073 18.3004 9.71142 17.7963L13.4226 14.0851C13.7157 13.7921 14.1134 13.6685 14.4993 13.7173C15.2299 13.8098 15.897 13.2925 15.9895 12.5619C16.0819 11.8314 15.5646 11.1642 14.834 11.0718Z" fill="white"/>
</svg>
