<svg width="98" height="21" viewBox="0 0 98 21" fill="none" xmlns="http://www.w3.org/2000/svg">
<path d="M35.1212 4.96981C32.3296 4.96981 30.3168 7.13013 30.3168 11.0167C30.3168 14.9335 32.2992 17.0938 35.192 17.0938C37.7813 17.0938 39.43 15.5392 39.4806 13.076H35.4954V10.6331H42.5049V12.7025C42.5049 17.1544 39.4401 19.9103 35.1718 19.9103C30.4078 19.9103 27.1711 16.5184 27.1711 11.047C27.1711 5.48465 30.5595 2.16343 35.0807 2.16343C38.8939 2.16343 41.8272 4.52564 42.3633 7.91753H39.1772C38.6209 6.08025 37.2048 4.96981 35.1212 4.96981ZM44.6087 6.72633H47.6532V19.668H44.6087V6.72633ZM46.136 4.66697C45.165 4.66697 44.3761 3.94013 44.3761 3.02149C44.3761 2.10286 45.1751 1.35583 46.1461 1.35583C47.1171 1.35583 47.9061 2.11295 47.9061 3.02149C47.9061 3.93004 47.1171 4.66697 46.1461 4.66697H46.136ZM56.7968 9.07844H54.2378V15.7815C54.2378 17.0131 54.8548 17.2856 55.6235 17.2856C55.6977 17.2856 55.7718 17.2822 55.846 17.2755C55.9202 17.2688 55.9944 17.2587 56.0685 17.2452C56.1427 17.2318 56.2169 17.2217 56.291 17.2149C56.3652 17.2015 56.4394 17.1847 56.5136 17.1645L57.0294 19.5469C56.8811 19.6007 56.7327 19.6445 56.5844 19.6781C56.436 19.7118 56.2877 19.742 56.1393 19.769C55.991 19.7959 55.8393 19.8161 55.6842 19.8295C55.5358 19.843 55.3841 19.8531 55.229 19.8598C52.9431 19.9305 51.1731 18.7292 51.1832 16.2862V9.08854H49.3524V6.72633H51.1832V3.607H54.2378V6.72633H56.7968V9.07844ZM59.1535 2.39561H62.2789V17.0433H69.875V19.668H59.1535V2.39561ZM71.4023 16.0338C71.4023 13.1164 73.7994 12.3694 76.3078 12.0968C78.5937 11.8545 79.5142 11.8142 79.5142 10.9359V10.8854C79.5142 9.61347 78.7353 8.88664 77.3193 8.88664C75.8223 8.88664 74.9626 9.64376 74.6693 10.5321L71.817 10.1182C72.4946 7.75601 74.5782 6.54462 77.2991 6.54462C79.767 6.54462 82.5587 7.5743 82.5587 10.9965V19.668H79.6254V17.8913H79.5243C78.968 18.9816 77.7542 19.9305 75.7212 19.9305C73.2532 19.9305 71.3921 18.5879 71.4023 16.0338ZM76.7225 17.6894C78.5634 17.6894 79.7266 16.4679 79.7165 15.0244V13.5C79.322 13.8231 77.7239 14.025 76.9147 14.136C75.5593 14.3278 74.5378 14.8124 74.5378 15.9935C74.5378 17.114 75.4481 17.6894 76.7225 17.6894ZM84.8041 2.39561H87.8486V8.85636H87.9801C88.4453 7.91753 89.3961 6.54462 91.682 6.54462C94.6759 6.54462 97.0225 8.89674 97.0225 13.2073C97.0225 17.4774 94.7366 19.9002 91.6921 19.9002C89.4669 19.9002 88.4656 18.5778 87.9801 17.6288H87.8081V19.668H84.8041V2.39561ZM90.8425 17.3967C92.8553 17.3967 93.9173 15.6099 93.9173 13.1972C93.9173 10.7845 92.8654 9.04816 90.8425 9.04816C88.8803 9.04816 87.798 10.6734 87.798 13.1972C87.798 15.7108 88.8904 17.3967 90.8425 17.3967Z" fill="white"/>
<path d="M21.7801 10.047C21.8104 10.6426 21.7396 11.2281 21.5677 11.8035C21.4059 12.3688 21.153 12.914 20.8192 13.3985C20.4854 13.8932 20.0707 14.3273 19.5953 14.6806L19.5852 14.6907L15.0438 18.0927L12.7983 19.7886L11.443 20.8183C11.3621 20.8789 11.2744 20.9226 11.18 20.9495C11.0856 20.9832 10.9878 21 10.8867 21C10.7855 21 10.6878 20.9832 10.5934 20.9495C10.499 20.9226 10.4147 20.8789 10.3405 20.8183L8.97502 19.7886L6.73969 18.0927L2.22858 14.7109L2.20835 14.6907L2.18812 14.6806C1.72285 14.3273 1.30815 13.8932 0.974373 13.3985C0.630476 12.914 0.377612 12.3688 0.215778 11.8035C0.0539445 11.2281 -0.0168577 10.6426 0.00337153 10.047C0.0337153 9.45141 0.15509 8.86591 0.367497 8.31069L0.397841 8.24002L3.36142 0.497223C3.3749 0.456844 3.39176 0.419829 3.41199 0.386179C3.43222 0.35253 3.45582 0.31888 3.48279 0.28523C3.50976 0.25158 3.53674 0.221296 3.56371 0.194376C3.59742 0.167456 3.63114 0.143901 3.66485 0.123712C3.766 0.063142 3.88738 0.0227624 4.00875 0.00257253C4.13013 -0.00752239 4.2515 0.0126674 4.36276 0.0530471C4.48414 0.0934268 4.58528 0.164091 4.6662 0.254945C4.74712 0.3458 4.8078 0.456844 4.83815 0.577983L6.84084 6.7056H14.9426L16.9453 0.577983C16.9858 0.456844 17.0363 0.3458 17.1274 0.254945C17.2083 0.164091 17.3094 0.0934268 17.4207 0.0530471C17.5421 0.0126674 17.6635 -0.00752239 17.7848 0.00257253C17.9062 0.0227624 18.0175 0.063142 18.1287 0.123712C18.1624 0.143901 18.1928 0.167456 18.2198 0.194376C18.2535 0.221296 18.2838 0.25158 18.3108 0.28523L18.3715 0.386179C18.3917 0.419829 18.4119 0.456844 18.4322 0.497223L21.3957 8.22993L21.4261 8.31069C21.6385 8.86591 21.7599 9.45141 21.7801 10.047Z" fill="white"/>
<path d="M21.7801 10.047C21.8104 10.6426 21.7396 11.2282 21.5778 11.8036C21.4058 12.3689 21.153 12.914 20.8192 13.3985C20.4854 13.8932 20.0707 14.3273 19.5953 14.6806L19.5852 14.6907L15.0438 18.0927L10.8968 14.9532L17.4106 10.0269C17.7005 9.80482 18.0039 9.60292 18.3209 9.42121C18.6378 9.23277 18.9648 9.06452 19.302 8.91646C19.6391 8.76168 19.983 8.62708 20.3337 8.51267C20.6776 8.39826 21.0316 8.30396 21.3957 8.22993L21.4261 8.31069C21.6385 8.86591 21.7599 9.45141 21.7801 10.047Z" fill="#F1F2F4"/>
<path d="M10.8968 14.9532L15.0438 18.0927L12.7983 19.7886L11.443 20.8183C11.3621 20.8789 11.2744 20.9226 11.18 20.9495C11.0856 20.9832 10.9878 21 10.8867 21C10.7855 21 10.6878 20.9832 10.5934 20.9495C10.499 20.9226 10.4147 20.8789 10.3405 20.8183L8.97502 19.7886L6.73969 18.0927L10.8968 14.9532Z" fill="#D0D5DD"/>
<path d="M10.8867 14.9534L6.73969 18.0927L2.22858 14.7109L2.20835 14.6907L2.18812 14.6806C1.72285 14.3273 1.30815 13.8932 0.974373 13.3985C0.630476 12.914 0.377612 12.3688 0.215778 11.8035C0.0539445 11.2281 -0.0168577 10.6426 0.00337153 10.047C0.0337153 9.45141 0.15509 8.86591 0.367497 8.31069L0.397841 8.24002C0.755223 8.31405 1.10923 8.40517 1.45987 8.51284C1.81051 8.62725 2.15441 8.76185 2.49156 8.91664C2.82197 9.0647 3.14564 9.23295 3.46256 9.42139C3.77949 9.60983 4.0863 9.81172 4.38299 10.0271L10.8867 14.9534Z" fill="#F1F2F4"/>
</svg>
