<svg width="120" height="23" viewBox="0 0 120 23" fill="none" xmlns="http://www.w3.org/2000/svg">
<path d="M29.0568 4.4531H31.8961V15.2713H37.1585V17.713H29.0568V4.4531Z" fill="#2E343F"/>
<path d="M38.4367 15.4607C38.002 14.6597 37.7831 13.7594 37.8016 12.8483C37.7831 11.9371 38.002 11.0368 38.4367 10.2358C38.85 9.48733 39.4759 8.87817 40.2353 8.48523C41.0768 8.07953 41.9989 7.86883 42.9331 7.86883C43.8673 7.86883 44.7895 8.07953 45.631 8.48523C46.3892 8.87973 47.0147 9.4885 47.4296 10.2358C47.8622 11.0375 48.0801 11.9375 48.062 12.8483C48.0823 13.7627 47.8643 14.6667 47.4296 15.4714C47.0119 16.2139 46.3869 16.8185 45.631 17.2113C44.7895 17.617 43.8673 17.8277 42.9331 17.8277C41.9989 17.8277 41.0768 17.617 40.2353 17.2113C39.4759 16.8183 38.85 16.2092 38.4367 15.4607ZM45.3562 12.8483C45.3862 12.1151 45.1502 11.3958 44.6917 10.8229C44.4759 10.5702 44.2054 10.3699 43.9007 10.2372C43.596 10.1046 43.2652 10.0429 42.9331 10.057C42.6014 10.0436 42.271 10.1067 41.9674 10.2414C41.6639 10.376 41.3954 10.5786 41.1826 10.8335C40.7268 11.4073 40.4945 12.1269 40.5288 12.8589C40.4945 13.5909 40.7268 14.3105 41.1826 14.8843C41.3954 15.1393 41.6639 15.3419 41.9674 15.4765C42.271 15.6111 42.6014 15.6742 42.9331 15.6609C43.2669 15.6724 43.5988 15.6074 43.9036 15.471C44.2084 15.3345 44.478 15.1302 44.6917 14.8737C45.1502 14.3008 45.3862 13.5814 45.3562 12.8483Z" fill="#2E343F"/>
<path d="M49.7939 15.4608C49.3592 14.6597 49.1403 13.7594 49.1588 12.8483C49.1403 11.9371 49.3592 11.0368 49.7939 10.2358C50.2072 9.48734 50.8331 8.87818 51.5925 8.48524C52.4335 8.07958 53.3552 7.8689 54.289 7.8689C55.2228 7.8689 56.1445 8.07958 56.9855 8.48524C57.7449 8.87818 58.3708 9.48734 58.7841 10.2358C59.2188 11.0368 59.4377 11.9371 59.4192 12.8483C59.4399 13.7631 59.221 14.6674 58.7841 15.4714C58.368 16.215 57.7426 16.82 56.9855 17.2113C56.1445 17.617 55.2228 17.8276 54.289 17.8276C53.3552 17.8276 52.4335 17.617 51.5925 17.2113C50.8331 16.8184 50.2072 16.2092 49.7939 15.4608ZM56.7134 12.8483C56.7464 12.1164 56.5143 11.3973 56.0596 10.8229C55.836 10.5782 55.564 10.3828 55.2607 10.2491C54.9575 10.1154 54.6297 10.0464 54.2984 10.0464C53.967 10.0464 53.6392 10.1154 53.336 10.2491C53.0327 10.3828 52.7607 10.5782 52.5371 10.8229C52.0872 11.3991 51.8599 12.1181 51.8967 12.8483C51.8629 13.5798 52.0941 14.2989 52.5478 14.8737C52.7713 15.1183 53.0434 15.3137 53.3466 15.4474C53.6499 15.5811 53.9776 15.6502 54.309 15.6502C54.6404 15.6502 54.9682 15.5811 55.2714 15.4474C55.5747 15.3137 55.8467 15.1183 56.0703 14.8737C56.5211 14.2978 56.7494 13.5788 56.7134 12.8483Z" fill="#2E343F"/>
<path d="M63.5634 4.4531V12.1278L67.3874 7.98355H70.3789L66.9098 11.7889L70.5763 17.713H67.4835L65.0231 13.7769L63.5634 15.346V17.713H60.8949V4.4531H63.5634Z" fill="#2E343F"/>
<path d="M73.8613 15.5168C74.2921 15.8027 74.8016 15.9464 75.3183 15.9277C75.7784 15.9515 76.237 15.8597 76.6526 15.6609C76.8057 15.5916 76.935 15.4787 77.0242 15.3363C77.1134 15.1939 77.1587 15.0283 77.1542 14.8603C77.1624 14.7546 77.1462 14.6483 77.1069 14.5498C77.0676 14.4512 77.0062 14.363 76.9274 14.2919C76.7376 14.1527 76.517 14.0612 76.2843 14.0251C76.0175 13.969 75.5531 13.9023 74.9207 13.8276C74.1985 13.7409 73.4845 13.5954 72.7859 13.3926C72.2647 13.2428 71.7937 12.9552 71.4223 12.5601C71.0656 12.138 70.8824 11.5963 70.9099 11.0443C70.903 10.4429 71.0901 9.8552 71.4436 9.36852C71.8161 8.86258 72.3239 8.4722 72.9086 8.2424C73.6008 7.96641 74.3411 7.83123 75.0861 7.84479C76.4115 7.85725 77.4789 8.141 78.2884 8.69605C78.6771 8.94729 78.9996 9.28847 79.2286 9.69072C79.4576 10.093 79.5863 10.5445 79.6039 11.007H77.0689C77.0485 10.8228 76.9859 10.6459 76.8859 10.4899C76.7859 10.3339 76.6513 10.2031 76.4925 10.1077C76.0929 9.85993 75.628 9.73813 75.1582 9.75812C74.7334 9.73841 74.3114 9.83629 73.9387 10.041C73.7996 10.113 73.6828 10.2216 73.6009 10.3552C73.5191 10.4888 73.4753 10.6422 73.4743 10.7988C73.4683 10.8977 73.4876 10.9965 73.5306 11.0857C73.5736 11.1749 73.6388 11.2517 73.7199 11.3085C73.9146 11.4351 74.1337 11.5196 74.363 11.5567C74.6298 11.6047 75.0701 11.6634 75.6972 11.7248C77.0101 11.8778 78.0171 12.1589 78.718 12.5681C79.4172 12.979 79.7667 13.6808 79.7667 14.6789C79.7759 15.2813 79.5792 15.8687 79.209 16.344C78.8026 16.8486 78.2654 17.2317 77.6559 17.4515C76.9202 17.7238 76.14 17.8559 75.3557 17.8411C74.0054 17.8411 72.9077 17.5413 72.0627 16.9418C71.661 16.6689 71.3303 16.304 71.0982 15.8774C70.8661 15.4508 70.7393 14.9749 70.7284 14.4894H73.2449C73.263 14.6962 73.3279 14.8961 73.4347 15.0741C73.5415 15.2521 73.6874 15.4035 73.8613 15.5168Z" fill="#2E343F"/>
<path d="M85.9177 17.8277C84.9966 17.8486 84.0851 17.6365 83.2678 17.2113C82.5242 16.8135 81.9151 16.2043 81.5173 15.4608C81.0969 14.6551 80.8858 13.7568 80.9035 12.8483C80.8833 11.9369 81.0945 11.0354 81.5173 10.2278C81.9192 9.48563 82.5321 8.87925 83.2785 8.48524C84.1021 8.05901 85.0199 7.84702 85.947 7.86881C87.2475 7.86881 88.3069 8.2006 89.1252 8.86417C89.9623 9.55598 90.5043 10.5408 90.6409 11.6181H87.8683C87.7763 11.171 87.5366 10.7678 87.1879 10.4733C86.8299 10.1823 86.3787 10.0306 85.9177 10.0463C85.5986 10.0356 85.2814 10.1003 84.9921 10.2352C84.7027 10.3702 84.4493 10.5715 84.2525 10.8229C83.8154 11.405 83.5946 12.1211 83.6281 12.8483C83.5946 13.5755 83.8154 14.2916 84.2525 14.8737C84.4482 15.127 84.7011 15.3304 84.9906 15.4672C85.28 15.604 85.5977 15.6704 85.9177 15.6609C86.3883 15.6774 86.849 15.5229 87.2146 15.2259C87.5709 14.9189 87.8088 14.4969 87.887 14.0331H90.6329C90.5082 15.1222 89.9693 16.1217 89.1279 16.8244C88.3006 17.4933 87.2306 17.8277 85.9177 17.8277Z" fill="#2E343F"/>
<path d="M92.1913 15.4608C91.7567 14.6597 91.5378 13.7594 91.5562 12.8483C91.5378 11.9371 91.7567 11.0368 92.1913 10.2358C92.6047 9.48734 93.2306 8.87818 93.9899 8.48524C94.831 8.07958 95.7527 7.8689 96.6865 7.8689C97.6202 7.8689 98.542 8.07958 99.383 8.48524C100.142 8.87818 100.768 9.48734 101.182 10.2358C101.616 11.0368 101.835 11.9371 101.817 12.8483C101.837 13.7631 101.618 14.6674 101.182 15.4714C100.769 16.2131 100.148 16.8179 99.3963 17.2113C98.5553 17.617 97.6336 17.8276 96.6998 17.8276C95.766 17.8276 94.8443 17.617 94.0033 17.2113C93.239 16.8205 92.6082 16.2111 92.1913 15.4608ZM99.1108 12.8483C99.1439 12.1164 98.9117 11.3973 98.457 10.8229C98.2335 10.5782 97.9614 10.3828 97.6582 10.2491C97.355 10.1154 97.0272 10.0464 96.6958 10.0464C96.3644 10.0464 96.0367 10.1154 95.7334 10.2491C95.4302 10.3828 95.1581 10.5782 94.9346 10.8229C94.4808 11.3976 94.2497 12.1168 94.2835 12.8483C94.2497 13.5798 94.4808 14.2989 94.9346 14.8737C95.1581 15.1183 95.4302 15.3137 95.7334 15.4474C96.0367 15.5811 96.3644 15.6502 96.6958 15.6502C97.0272 15.6502 97.355 15.5811 97.6582 15.4474C97.9614 15.3137 98.2335 15.1183 98.457 14.8737C98.9127 14.2997 99.1458 13.5804 99.1135 12.8483H99.1108Z" fill="#2E343F"/>
<path d="M112.456 17.713H110.092L109.844 16.5388C109.502 16.9629 109.065 17.3006 108.569 17.5245C108.072 17.7485 107.53 17.8523 106.986 17.8277C106.475 17.8472 105.965 17.7643 105.486 17.5837C105.008 17.4031 104.57 17.1286 104.2 16.7763C103.488 16.0772 103.132 14.9066 103.132 13.2645V7.98355H105.801V12.9417C105.801 13.8276 105.956 14.4921 106.265 14.9404C106.426 15.1655 106.642 15.3455 106.893 15.4633C107.143 15.581 107.419 15.6325 107.695 15.6128C107.996 15.6264 108.294 15.5652 108.565 15.4348C108.835 15.3043 109.069 15.1088 109.246 14.8657C109.614 14.3666 109.796 13.6675 109.796 12.7735V7.98355H112.464L112.456 17.713Z" fill="#2E343F"/>
<path d="M113.403 10.2358V7.98355H115.005V5.25365H117.673V7.98355H119.888V10.2358H117.673V14.5054C117.649 14.7703 117.726 15.0344 117.889 15.2446C117.99 15.3293 118.106 15.393 118.232 15.432C118.357 15.4709 118.49 15.4843 118.62 15.4714H120V17.7237H117.809C115.952 17.7237 115.024 16.7959 115.026 14.9404V10.2358H113.403Z" fill="#2E343F"/>
<path d="M13.8564 2.4L0 10.4V5.6L9.70256 0L13.8564 2.4Z" fill="#2E343F"/>
<path d="M19.4051 5.6V8.36923L2.4 18.1846L0 16.8V14.1949L17.1385 4.29744L19.4051 5.6Z" fill="#2E343F"/>
<path d="M5.68205 20.0821L19.4051 12.1641V16.8L9.70256 22.4L5.68205 20.0821Z" fill="#2E343F"/>
</svg>
