<svg width="89" height="24" viewBox="0 0 89 24" fill="none" xmlns="http://www.w3.org/2000/svg">
<path fill-rule="evenodd" clip-rule="evenodd" d="M34.5182 9.2112C33.3812 9.2112 32.8507 10.1208 32.5475 10.6513C32.3959 10.9545 32.3959 11.2577 32.2443 11.2577C32.0927 11.2577 32.1685 11.0303 32.0927 10.5755C31.9411 9.89337 31.4105 9.2112 30.2736 9.2112C29.0608 9.2112 28.5302 10.1966 28.3029 10.8029C28.1513 11.1819 28.1513 11.2577 27.9997 11.2577C27.8481 11.2577 27.9997 10.9545 28.0755 10.5755C28.2271 9.89337 28.1513 9.36279 28.1513 9.36279H26.2563V16.4877H28.8334C28.8334 16.4877 28.8334 13.5316 28.8334 12.9252C28.8334 12.2431 29.1366 11.3335 29.5914 11.3335C30.1978 11.3335 30.2736 11.7883 30.2736 12.6221V16.4877H32.8507C32.8507 16.4877 32.8507 13.4558 32.8507 12.9252C32.8507 12.3189 33.078 11.3335 33.6844 11.3335C34.2908 11.3335 34.3666 11.9399 34.3666 12.6221V16.4877H36.9437C36.9437 16.4877 36.9437 13.6832 36.9437 12.3189C36.8679 10.4997 36.1857 9.2112 34.5182 9.2112Z" fill="#101828"/>
<path fill-rule="evenodd" clip-rule="evenodd" d="M78.4802 9.2112C77.3433 9.2112 76.8127 10.1208 76.5095 10.6513C76.3579 10.9545 76.3579 11.2577 76.2063 11.2577C76.0548 11.2577 76.1306 10.9545 76.0548 10.5755C75.8274 9.89337 75.3726 9.2112 74.2356 9.2112C73.0229 9.2112 72.4923 10.1966 72.2649 10.8029C72.1133 11.1819 72.1133 11.2577 71.9617 11.2577C71.8101 11.2577 71.9617 10.9545 72.0375 10.5755C72.1891 9.89337 72.1133 9.36279 72.1133 9.36279H70.2184V16.4877H72.7955C72.7955 16.4877 72.7955 13.5316 72.7955 12.9252C72.7955 12.2431 73.0987 11.3335 73.5535 11.3335C74.1598 11.3335 74.2356 11.7883 74.2356 12.6221V16.4877H76.8127C76.8127 16.4877 76.8127 13.4558 76.8127 12.9252C76.8127 12.3189 77.0401 11.3335 77.6465 11.3335C78.2529 11.3335 78.3287 11.9399 78.3287 12.6221V16.4877H80.9057C80.9057 16.4877 80.9057 13.6832 80.9057 12.3189C80.8299 10.4997 80.2236 9.2112 78.4802 9.2112Z" fill="#101828"/>
<path d="M41.2641 9.2112C39.2934 9.2112 37.8532 9.96917 37.8532 9.96917V12.0915C37.8532 12.0915 39.445 11.1819 40.7335 11.1819C41.7189 11.1819 41.8705 11.7125 41.7947 12.1673C41.7947 12.1673 41.4915 12.0915 40.5819 12.0915C38.4596 12.0915 37.3985 13.0768 37.3985 14.5928C37.3985 16.0329 38.6112 16.6393 39.5966 16.6393C41.0367 16.6393 41.7189 15.6539 41.9463 15.1991C42.0979 14.896 42.0979 14.6686 42.2494 14.6686C42.401 14.6686 42.3252 14.8202 42.3252 15.1233C42.3252 15.6539 42.3252 16.1087 42.401 16.4877H44.3717V13.001C44.4475 10.8029 43.6138 9.2112 41.2641 9.2112ZM40.6577 14.896C40.0513 15.0475 39.7481 14.8202 39.7481 14.4412C39.7481 13.9106 40.3545 13.6832 41.1883 13.6832H41.8705C41.8705 13.9106 41.3399 14.7444 40.6577 14.896Z" fill="#101828"/>
<path fill-rule="evenodd" clip-rule="evenodd" d="M48.6922 7.24049H51.2692V16.5635H48.6922V7.24049Z" fill="#101828"/>
<path fill-rule="evenodd" clip-rule="evenodd" d="M54.1495 13.001C54.1495 12.3947 54.7559 11.7883 55.817 11.7883C57.0298 11.7883 57.9394 12.3947 58.1667 12.4705V9.96917C58.1667 9.96917 57.4088 9.2112 55.5139 9.2112C53.5431 9.2112 51.9514 10.3482 51.9514 12.8494C51.9514 15.3507 53.4674 16.7151 55.5139 16.7151C57.1814 16.7151 58.1667 15.8055 58.1667 15.8055V13.4558C57.8636 13.6074 56.954 14.2138 55.817 14.2138C54.6043 14.2138 54.1495 13.6832 54.1495 13.001Z" fill="#101828"/>
<path fill-rule="evenodd" clip-rule="evenodd" d="M63.3967 9.2112C61.8808 9.2112 61.3502 10.6513 61.1986 10.8787C61.047 11.1061 61.047 11.2577 60.8954 11.2577C60.7438 11.2577 60.8196 10.9545 60.8954 10.7271C61.047 10.3482 61.2744 9.43859 61.2744 8.22584C61.2744 7.39208 61.1986 7.16469 61.1986 7.16469H58.9247V16.4877H61.5018C61.5018 16.4877 61.5018 13.5316 61.5018 12.9252C61.5018 12.3189 61.7292 11.3335 62.4114 11.3335C62.9419 11.3335 63.0935 11.7125 63.0935 12.5463V16.4877H65.6706C65.6706 16.4877 65.6706 14.2896 65.6706 12.6978C65.8222 10.9545 65.519 9.2112 63.3967 9.2112Z" fill="#101828"/>
<path fill-rule="evenodd" clip-rule="evenodd" d="M66.656 9.43859V16.5635H69.2331V9.43859C69.2331 9.43859 68.7783 9.66598 67.9445 9.66598C67.1108 9.66598 66.656 9.43859 66.656 9.43859Z" fill="#101828"/>
<path fill-rule="evenodd" clip-rule="evenodd" d="M67.9445 9.287C68.8236 9.287 69.5362 8.8119 69.5362 8.22584C69.5362 7.63978 68.8236 7.16469 67.9445 7.16469C67.0654 7.16469 66.3528 7.63978 66.3528 8.22584C66.3528 8.8119 67.0654 9.287 67.9445 9.287Z" fill="#101828"/>
<path fill-rule="evenodd" clip-rule="evenodd" d="M45.2813 16.5635H47.8584V9.43859C47.8584 9.43859 47.4036 9.66598 46.5699 9.66598C45.7361 9.66598 45.2813 9.43859 45.2813 9.43859V16.5635Z" fill="#101828"/>
<path fill-rule="evenodd" clip-rule="evenodd" d="M46.5699 9.287C47.4489 9.287 48.1616 8.8119 48.1616 8.22584C48.1616 7.63978 47.4489 7.16469 46.5699 7.16469C45.6908 7.16469 44.9781 7.63978 44.9781 8.22584C44.9781 8.8119 45.6908 9.287 46.5699 9.287Z" fill="#101828"/>
<path d="M85.9841 9.2112C84.6198 9.2112 84.0134 10.1966 83.786 10.8029C83.6344 11.1819 83.6344 11.2577 83.4828 11.2577C83.3312 11.2577 83.4828 10.9545 83.5586 10.5755C83.7102 9.89337 83.6344 9.36279 83.6344 9.36279H81.7395V18.4584H84.3166C84.3166 18.4584 84.3166 16.9425 84.3166 15.5781C84.6198 16.1087 85.2262 16.6393 86.0599 16.6393C87.9548 16.6393 88.8644 15.0475 88.8644 12.9252C88.8644 10.5755 87.7274 9.2112 85.9841 9.2112ZM85.3019 15.0475C84.6956 15.0475 84.2408 14.2896 84.2408 13.2284C84.2408 12.2431 84.6956 11.4093 85.2262 11.4093C85.9841 11.4093 86.2873 12.0915 86.2873 13.2284C86.2873 14.3654 85.9841 15.0475 85.3019 15.0475Z" fill="#101828"/>
<path fill-rule="evenodd" clip-rule="evenodd" d="M16.9334 11.4093H17.4639C17.5397 11.1819 17.5397 10.8787 17.4639 10.4997C17.3123 9.96917 17.1607 9.59019 16.8576 9.66598C16.5544 9.74178 16.4786 10.1208 16.6302 10.7271C16.706 10.9545 16.8576 11.2577 16.9334 11.4093Z" fill="#101828"/>
<path fill-rule="evenodd" clip-rule="evenodd" d="M14.1289 11.8641C14.3563 11.9399 14.5079 12.0157 14.5837 11.9399C14.5837 11.9399 14.5837 11.8641 14.5837 11.7125C14.4321 11.4851 14.2047 11.3335 13.9773 11.1819C13.4467 10.9545 12.8403 11.0303 12.3856 11.4093C12.234 11.5609 12.0824 11.7125 12.0824 11.7883C12.0824 11.7883 12.0824 11.8641 12.1582 11.8641C12.3098 11.8641 12.7645 11.6367 13.2951 11.6367C13.5983 11.6367 13.9015 11.7125 14.1289 11.8641Z" fill="#101828"/>
<path fill-rule="evenodd" clip-rule="evenodd" d="M13.6741 12.0915C13.3709 12.1673 13.2193 12.2431 13.0677 12.3189C12.9919 12.3947 12.9161 12.4705 12.9161 12.5463V12.6221H12.9919C13.0677 12.6221 13.2193 12.5463 13.2193 12.5463C13.6741 12.3947 13.9015 12.3947 14.2047 12.4705H14.4321V12.3947C14.3563 12.2431 14.0531 12.0915 13.6741 12.0915Z" fill="#101828"/>
<path fill-rule="evenodd" clip-rule="evenodd" d="M16.0238 13.1526C16.2512 13.2284 16.4786 13.2284 16.5544 13.0768C16.6302 12.9252 16.5544 12.6978 16.327 12.6221C16.0996 12.5463 15.8722 12.5463 15.7964 12.6978C15.7206 12.7736 15.7964 13.001 16.0238 13.1526Z" fill="#101828"/>
<path fill-rule="evenodd" clip-rule="evenodd" d="M17.3881 11.9399C17.2365 11.9399 17.0849 12.0915 17.0849 12.3947C17.0849 12.6221 17.2365 12.8494 17.3881 12.8494C17.5397 12.8494 17.6913 12.6978 17.6913 12.3947C17.6913 12.1673 17.5397 11.9399 17.3881 11.9399Z" fill="#101828"/>
<path fill-rule="evenodd" clip-rule="evenodd" d="M5.86704 16.1845C5.79124 16.1087 5.79124 16.1845 5.71545 16.1845C5.63965 16.1845 5.63965 16.1845 5.56385 16.1845C5.41226 16.1845 5.33646 16.1087 5.26067 16.0329C5.18487 15.8813 5.18487 15.7297 5.26067 15.5023C5.26067 15.5023 5.26067 15.4265 5.33646 15.4265C5.48806 15.1233 5.71545 14.5928 5.41226 14.138C5.18487 13.759 4.88168 13.5316 4.5027 13.4558C4.12372 13.38 3.74473 13.5316 3.51734 13.8348C3.13836 14.2138 3.06256 14.8202 3.13836 15.0475C3.13836 15.1233 3.21416 15.1233 3.21416 15.1233C3.28995 15.1233 3.36575 15.0475 3.44155 14.896C3.44155 14.896 3.44155 14.896 3.44155 14.8202C3.44155 14.7444 3.51734 14.5928 3.59314 14.4412C3.66894 14.2896 3.82053 14.2138 4.04792 14.138C4.19951 14.0622 4.4269 14.138 4.5785 14.2138C4.80589 14.3654 4.95748 14.7444 4.80589 15.0475C4.73009 15.1991 4.65429 15.5023 4.65429 15.7297C4.73009 16.2603 5.03328 16.4119 5.26067 16.4877C5.56385 16.4877 5.71545 16.3361 5.79124 16.2603C5.94284 16.1845 5.94284 16.1845 5.86704 16.1845Z" fill="#101828"/>
<path d="M21.6327 15.1991C21.6327 15.1991 21.557 14.896 21.4812 14.5928C21.4054 14.2896 21.3296 14.0622 21.3296 14.0622C21.7085 13.5316 21.7085 13.001 21.6327 12.6978C21.557 12.3189 21.4054 12.0157 21.1022 11.7125C20.799 11.4093 20.1926 11.1061 19.3588 10.8787C19.2831 10.8787 18.9799 10.7271 18.9041 10.7271C18.9041 10.7271 18.9041 9.66598 18.8283 9.2112C18.8283 8.90801 18.7525 8.37744 18.6009 7.92266C18.4493 7.24049 18.0703 6.70991 17.6913 6.33093C18.8283 5.19398 19.5104 3.90543 19.5104 2.84428C19.5104 0.797771 16.9334 0.115601 13.8257 1.40414L13.1435 1.70733L11.9308 0.494584C8.36833 -2.61308 -2.92537 9.81757 0.712868 12.9252L1.47083 13.6074C1.24344 14.138 1.16765 14.7444 1.24344 15.4265C1.31924 16.2603 1.77402 17.0941 2.45619 17.7004C3.13836 18.3068 3.97212 18.6858 4.80589 18.6858C6.17023 21.945 9.42948 23.9158 13.1435 23.9916C17.1607 24.1431 20.5716 22.2482 21.9359 18.8374C22.0117 18.61 22.3907 17.5488 22.3907 16.5635C22.5423 15.6539 22.0117 15.1991 21.6327 15.1991ZM5.18487 17.7762C5.03328 17.7762 4.95748 17.7762 4.80589 17.7762C3.59314 17.7762 2.3046 16.6393 2.153 15.3507C2.00141 13.9106 2.75938 12.8494 4.04792 12.5463C4.19951 12.5463 4.4269 12.4705 4.5785 12.4705C5.33646 12.5463 6.39762 13.0768 6.62501 14.6686C6.8524 16.1087 6.54921 17.5488 5.18487 17.7762ZM3.89633 11.7125C3.06256 11.8641 2.38039 12.3189 1.92561 12.9252C1.69822 12.6978 1.16765 12.3189 1.09185 12.0915C0.409681 10.8029 1.84982 8.22584 2.83517 6.78571C5.33646 3.22326 9.27789 0.494584 11.097 1.02516C11.4002 1.10096 12.3856 2.23791 12.3856 2.23791C12.3856 2.23791 10.5664 3.22326 8.89891 4.6634C6.62501 6.40672 4.88168 8.98381 3.89633 11.7125ZM16.6302 17.2456C16.6302 17.1699 16.6302 17.0941 16.6302 17.0941C16.6302 17.0941 14.7353 17.3972 12.9161 16.7151C13.1435 16.1087 13.5983 16.3361 14.4321 16.3361C15.8722 16.4119 17.0849 16.1845 18.0703 15.9571C18.9041 15.7297 19.9652 15.2749 20.799 14.5928C21.1022 15.1991 21.178 15.8813 21.178 15.8813C21.178 15.8813 21.4054 15.8055 21.557 15.9571C21.7085 16.0329 21.8601 16.2603 21.7843 16.8667C21.6327 17.9278 21.178 18.7616 20.42 19.5953C19.9652 20.1259 19.4346 20.5049 18.7525 20.8081C18.4493 20.9597 18.0703 21.1113 17.6913 21.2629C14.811 22.1724 11.9308 21.1871 11.0212 18.989C10.9454 18.8374 10.8696 18.6858 10.8696 18.4584C10.4906 17.0183 10.7938 15.2749 11.855 14.2138C11.9308 14.138 12.0066 14.0622 12.0066 13.9864C12.0066 13.9106 11.9308 13.8348 11.9308 13.759C11.5518 13.2284 10.2632 12.3189 10.5664 10.4997C10.718 9.2112 11.855 8.30164 12.9161 8.37744H13.1435C13.5983 8.37744 13.9773 8.45323 14.3563 8.45323C14.9626 8.45323 15.569 8.37744 16.1754 7.84686C16.4028 7.69527 16.5544 7.46788 16.8576 7.46788H17.1607C17.3123 7.46788 17.4639 7.54367 17.6155 7.61947C18.1461 7.99845 18.2219 8.83222 18.2219 9.43859C18.2219 9.81757 18.2977 10.6513 18.2977 10.8787C18.2977 11.4093 18.4493 11.5609 18.7525 11.6367C18.9041 11.7125 19.0557 11.7125 19.2831 11.7883C19.9652 12.0157 20.42 12.1673 20.6474 12.4705C20.799 12.6221 20.8748 12.7736 20.8748 13.001C20.9506 13.6074 20.42 14.3654 18.9799 15.0475C17.3881 15.8055 15.4174 15.9571 14.1289 15.8055C14.0531 15.8055 13.6741 15.7297 13.6741 15.7297C12.6129 15.5781 12.0066 16.9425 12.6129 17.9278C12.9919 18.5342 14.1289 18.9132 15.2658 18.9132C17.8429 18.9132 19.8136 17.7762 20.5716 16.8667C20.5716 16.8667 20.5716 16.8667 20.6474 16.7909C20.6474 16.7151 20.6474 16.7151 20.5716 16.7151C19.9652 17.0941 17.3123 18.7616 14.4321 18.3068C14.4321 18.3068 14.0531 18.231 13.7499 18.1552C13.5225 18.0794 12.9919 17.7762 12.9161 17.2456C15.1142 17.9278 16.6302 17.2456 16.6302 17.2456ZM8.51992 6.78571C9.42948 5.72455 10.4906 4.89079 11.476 4.36021C11.476 4.36021 11.5518 4.36021 11.5518 4.43601C11.476 4.5876 11.3244 4.89079 11.2486 5.11818C11.2486 5.11818 11.2486 5.19398 11.3244 5.19398C11.9308 4.81499 12.9919 4.36021 13.9015 4.28442C13.9773 4.28442 13.9773 4.36021 13.9015 4.36021C13.7499 4.43601 13.5983 4.5876 13.5225 4.7392V4.81499C14.2047 4.81499 15.1142 5.04238 15.7206 5.42137C15.7964 5.42137 15.7206 5.49716 15.7206 5.49716C14.811 5.26977 13.2951 5.11818 11.7792 5.49716C10.339 5.80035 9.27789 6.33093 8.51992 6.78571C8.51992 6.9373 8.44413 6.8615 8.51992 6.78571Z" fill="#101828"/>
</svg>
