<svg width="27" height="30" viewBox="0 0 27 30" fill="none" xmlns="http://www.w3.org/2000/svg">
<path d="M14.6667 10.4986C16.967 9.90659 18.6667 7.81845 18.6667 5.33333C18.6667 2.38781 16.2789 0 13.3333 0C10.3878 0 8 2.38781 8 5.33333C8 7.81845 9.6997 9.90659 12 10.4986V13.3333H8C5.79086 13.3333 4 15.1242 4 17.3333V18.8347C1.6997 19.4267 0 21.5149 0 24C0 26.9455 2.38781 29.3333 5.33333 29.3333C8.27885 29.3333 10.6667 26.9455 10.6667 24C10.6667 21.5149 8.96697 19.4267 6.66667 18.8347V17.3333C6.66667 16.597 7.26362 16 8 16H18.6667C19.403 16 20 16.597 20 17.3333V18.8347C17.6997 19.4267 16 21.5149 16 24C16 26.9455 18.3878 29.3333 21.3333 29.3333C24.2789 29.3333 26.6667 26.9455 26.6667 24C26.6667 21.5149 24.967 19.4267 22.6667 18.8347V17.3333C22.6667 15.1242 20.8758 13.3333 18.6667 13.3333H14.6667V10.4986Z" fill="white"/>
</svg>
