<svg width="78" height="21" viewBox="0 0 78 21" fill="none" xmlns="http://www.w3.org/2000/svg">
<path d="M73.5434 9.99598L77.7 21C76.475 20.8251 75.2507 20.6059 74.0041 20.4085L71.6626 14.3284L69.2567 19.9066C68.0758 19.7092 66.9159 19.6434 65.7349 19.4901L69.9567 9.86515L66.1276 0H69.6717L71.8151 5.51182L74.1125 0H77.6994L73.5434 9.99598ZM63.3291 0H60.1133V19.075C61.1633 19.1408 62.2566 19.1842 63.3291 19.3151V0ZM57.335 18.856C54.4041 18.6592 51.4724 18.4849 48.4757 18.4184V8.4511e-05H51.7567V15.3125C53.6383 15.3559 55.5192 15.5086 57.335 15.596V18.856ZM44.975 7.45988V10.7408H40.4909V18.2H37.2541V0H46.4416V3.28089H40.4916V7.45997H44.9757L44.975 7.45988ZM31.7409 3.28089V18.375C30.6468 18.375 29.5317 18.375 28.4593 18.4184V3.28089H25.0685V0H35.1526V3.28089H31.7409ZM21.5251 10.9151C20.0817 10.9151 18.3751 10.9151 17.1501 10.9816V15.8592C19.0751 15.7276 21.0001 15.575 22.9467 15.5092V18.6592L13.8692 19.3816V0H22.9461V3.28089H17.15V7.69998C18.4191 7.69998 20.3658 7.63423 21.525 7.63423V10.9158L21.5251 10.9151ZM3.34605 9.07759V20.5401C2.16585 20.6717 1.11512 20.825 0 21V0H3.12835L7.39354 11.9225V0H10.6751V19.6434C9.51587 19.8408 8.33432 19.9066 7.08761 20.0809L3.34605 9.07759Z" fill="white"/>
</svg>
