<svg width="79" height="21" viewBox="0 0 79 21" fill="none" xmlns="http://www.w3.org/2000/svg">
<path d="M13.3013 1.01921C12.3164 0.340442 11.0311 0.000236776 9.44557 0.000236776H3.30705C2.82097 0.000236776 2.55243 0.243929 2.50142 0.730844L0.00782733 16.4222C-0.0180889 16.5763 0.0203749 16.7172 0.122867 16.8454C0.224773 16.9737 0.352947 17.0376 0.506451 17.0376H3.42221C3.93361 17.0376 4.2147 16.7945 4.2663 16.3069L4.95678 12.0766C4.98199 11.8716 5.07193 11.7049 5.22544 11.5765C5.37882 11.4484 5.57068 11.3646 5.80087 11.3262C6.03107 11.2882 6.24813 11.2689 6.45312 11.2689C6.65752 11.2689 6.90038 11.2819 7.18217 11.3074C7.46327 11.3329 7.64245 11.3455 7.71926 11.3455C9.91874 11.3455 11.6452 10.7242 12.8986 9.48026C14.1515 8.237 14.7787 6.51293 14.7787 4.30735C14.7787 2.79465 14.2858 1.69868 13.3013 1.01885V1.01921ZM10.1364 5.73083C10.0081 6.62837 9.676 7.21779 9.13891 7.49993C8.6017 7.78241 7.83442 7.92301 6.83705 7.92301L5.57091 7.96133L6.22327 3.84606C6.27417 3.56428 6.44034 3.42322 6.7219 3.42322H7.45107C8.47365 3.42322 9.21584 3.57099 9.67623 3.86534C10.1364 4.16041 10.2899 4.78239 10.1364 5.73083Z" fill="white"/>
<path d="M78.0814 0H75.2427C74.9606 0 74.7945 0.141068 74.7439 0.423319L72.25 16.4226L72.2116 16.4995C72.2116 16.6283 72.2627 16.7495 72.3653 16.865C72.467 16.9802 72.5955 17.0379 72.7488 17.0379H75.2813C75.7664 17.0379 76.0351 16.7948 76.0871 16.3073L78.5806 0.577198V0.538993C78.5805 0.179861 78.4138 0.000471758 78.0814 0.000471758V0Z" fill="white"/>
<path d="M43.7828 6.19283C43.7828 6.06493 43.7315 5.9429 43.6298 5.82782C43.5272 5.71249 43.412 5.65442 43.2845 5.65442H40.3304C40.0484 5.65442 39.8182 5.78326 39.6395 6.03894L35.5729 12.0389L33.8848 6.26994C33.7563 5.86003 33.4753 5.65442 33.0409 5.65442H30.163C30.0348 5.65442 29.9198 5.71226 29.8181 5.82782C29.7155 5.9429 29.6646 6.06516 29.6646 6.19283C29.6646 6.24443 29.914 7.00055 30.4126 8.462C30.9113 9.92392 31.4484 11.5008 32.0239 13.1931C32.5995 14.8851 32.8998 15.783 32.9255 15.8847C30.828 18.7568 29.7797 20.2951 29.7797 20.4999C29.7797 20.8335 29.9457 21 30.2785 21H33.2326C33.5138 21 33.7439 20.8721 33.9233 20.6156L43.7066 6.46191C43.7574 6.41113 43.7828 6.32178 43.7828 6.19271V6.19283Z" fill="white"/>
<path d="M71.2916 5.65442H68.3757C68.0172 5.65442 67.8007 6.07762 67.7238 6.9239C67.058 5.89858 65.8439 5.38522 64.0787 5.38522C62.2372 5.38522 60.6704 6.07762 59.379 7.46219C58.0872 8.84676 57.4417 10.4754 57.4417 12.3469C57.4417 13.8599 57.8828 15.0649 58.765 15.9619C59.6475 16.8599 60.8302 17.3081 62.3143 17.3081C63.0559 17.3081 63.8104 17.1539 64.5777 16.8465C65.3449 16.5389 65.9455 16.1289 66.3811 15.6158C66.3811 15.6416 66.355 15.7566 66.3044 15.9616C66.2527 16.1671 66.2275 16.3214 66.2275 16.4231C66.2275 16.8338 66.3933 17.0384 66.7264 17.0384H69.3738C69.8592 17.0384 70.1409 16.7953 70.2173 16.3078L71.7906 6.26971C71.8158 6.11571 71.7776 5.97499 71.6754 5.84662C71.5726 5.71872 71.445 5.65442 71.2916 5.65442ZM66.285 13.2313C65.6327 13.8724 64.8461 14.1927 63.9254 14.1927C63.1833 14.1927 62.5828 13.9879 62.1222 13.5774C61.6615 13.1681 61.4314 12.6039 61.4314 11.8852C61.4314 10.9372 61.7511 10.1353 62.3908 9.48156C63.0294 8.82771 63.823 8.50091 64.7694 8.50091C65.485 8.50091 66.0797 8.71239 66.5534 9.13524C67.0261 9.55844 67.2634 10.1418 67.2634 10.8855C67.2632 11.8085 66.9371 12.5907 66.285 13.2313Z" fill="white"/>
<path d="M27.7077 5.65442H24.7919C24.4333 5.65442 24.2163 6.07762 24.1395 6.9239C23.4489 5.89858 22.2339 5.38522 20.4947 5.38522C18.6531 5.38522 17.0863 6.07762 15.7948 7.46219C14.503 8.84676 13.8574 10.4754 13.8574 12.3469C13.8574 13.8599 14.2987 15.0649 15.1811 15.9619C16.0636 16.8599 17.2462 17.3081 18.7299 17.3081C19.4457 17.3081 20.1879 17.1539 20.9551 16.8465C21.7224 16.5389 22.3363 16.1289 22.7967 15.6158C22.694 15.9232 22.6432 16.1926 22.6432 16.4231C22.6432 16.8338 22.8093 17.0384 23.1419 17.0384H25.7891C26.2747 17.0384 26.5564 16.7953 26.6332 16.3078L28.2061 6.26971C28.2313 6.11571 28.1931 5.97499 28.0911 5.84662C27.9887 5.71872 27.861 5.65442 27.7077 5.65442ZM22.701 13.2504C22.0486 13.8793 21.249 14.1927 20.3032 14.1927C19.561 14.1927 18.9663 13.9879 18.5191 13.5774C18.0712 13.1681 17.8476 12.6039 17.8476 11.8852C17.8476 10.9372 18.1671 10.1353 18.8068 9.48156C19.4458 8.82771 20.2388 8.50079 21.1855 8.50079C21.9013 8.50079 22.496 8.71239 22.9696 9.13524C23.4425 9.55844 23.6793 10.1418 23.6793 10.8855C23.6792 11.8342 23.3532 12.6229 22.701 13.2504Z" fill="white"/>
<path d="M56.8852 1.01921C55.9004 0.340442 54.6155 0.000236776 53.0296 0.000236776H46.9293C46.4176 0.000236776 46.1361 0.243929 46.0853 0.730844L43.5915 16.4222C43.5656 16.5763 43.604 16.7172 43.7066 16.8454C43.8081 16.9737 43.9366 17.0376 44.0901 17.0376H47.2359C47.5428 17.0376 47.7473 16.8711 47.8499 16.5377L48.5405 12.0766C48.566 11.8716 48.6555 11.7049 48.8092 11.5765C48.9627 11.4484 49.1543 11.3646 49.3847 11.3262C49.6147 11.2882 49.8318 11.2689 50.0369 11.2689C50.2414 11.2689 50.4841 11.2819 50.7657 11.3074C51.0469 11.3329 51.2266 11.3455 51.3028 11.3455C53.5027 11.3455 55.2288 10.7242 56.4823 9.48026C57.7356 8.237 58.3622 6.51293 58.3622 4.30735C58.3623 2.79465 57.8697 1.69856 56.8852 1.01885V1.01921ZM52.9529 7.34593C52.3901 7.73045 51.5459 7.92265 50.4208 7.92265L49.1929 7.96121L49.8451 3.84583C49.8958 3.56417 50.0621 3.42286 50.3438 3.42286H51.0341C51.5969 3.42286 52.0444 3.44861 52.3774 3.49975C52.7093 3.55124 53.0296 3.71123 53.3365 3.98031C53.6436 4.24963 53.7968 4.64086 53.7968 5.1534C53.7968 6.23068 53.5152 6.96105 52.9529 7.34593Z" fill="white"/>
</svg>
