<svg width="22" height="20" viewBox="0 0 22 20" fill="none" xmlns="http://www.w3.org/2000/svg">
<path d="M16.9212 8.39052L8.71812 16.5936C7.46287 14.3616 5.6168 12.5155 3.38478 11.2603L13.6888 0.956199C14.2169 0.428184 14.4809 0.164175 14.7853 0.065258C15.0531 -0.0217527 15.3416 -0.0217527 15.6094 0.065258C15.9138 0.164176 16.1778 0.428187 16.7058 0.95621L19.0222 3.27256C19.5502 3.80058 19.8142 4.06459 19.9131 4.36903C20.0001 4.63682 20.0001 4.92528 19.9131 5.19307C19.8142 5.49751 19.5502 5.76152 19.0222 6.28954L18.8068 6.5049L21.0021 8.70017C21.7831 9.48122 21.7831 10.7475 21.0021 11.5286L17.4735 15.0572C16.9528 15.5779 16.1086 15.5779 15.5879 15.0572C15.0672 14.5365 15.0672 13.6923 15.5879 13.1716L18.6451 10.1144L16.9212 8.39052Z" fill="white"/>
<path d="M1.54549 13.7366L0.54657 16.7333C0.112306 18.0361 -0.104826 18.6875 0.0496437 19.1207C0.184068 19.4977 0.480713 19.7943 0.857678 19.9287C1.29085 20.0832 1.94226 19.8661 3.24503 19.4318L6.2418 18.4329C6.39278 18.3826 6.51206 18.3428 6.61172 18.3075C5.52771 16.1813 3.79708 14.4507 1.67086 13.3667C1.63558 13.4663 1.59581 13.5856 1.54549 13.7366Z" fill="white"/>
</svg>
