<svg width="30" height="30" viewBox="0 0 30 30" fill="none" xmlns="http://www.w3.org/2000/svg">
<path d="M0.742584 9.98652C0.260807 11.4392 0 12.9926 0 14.6069C0 20.146 3.07066 24.968 7.60261 27.4634L12.9114 15.2958L0.742584 9.98652Z" fill="white"/>
<path d="M1.81012 7.54286L13.3333 12.5705V0C8.36029 0.448145 4.10303 3.37862 1.81012 7.54286Z" fill="white"/>
<path d="M14.6667 29.2735C13.0523 29.2735 11.4989 29.0127 10.0463 28.5309L15.8774 15.1662C15.9183 15.0777 15.9498 14.984 15.9707 14.8863C15.9928 14.7834 16.0024 14.6797 16 14.5771V0C23.4753 0.673638 29.3333 6.95615 29.3333 14.6069C29.3333 22.7071 22.7668 29.2735 14.6667 29.2735Z" fill="white"/>
</svg>
