<svg width="101" height="24" viewBox="0 0 101 24" fill="none" xmlns="http://www.w3.org/2000/svg">
<path d="M39.4507 8.56826H42.6222V18.5518H39.4507V8.56826Z" fill="#E60023"/>
<path d="M43.2844 8.56825H46.3392V9.93319H46.3975C47.1368 8.86069 48.0902 8.2758 49.4717 8.2758C51.6508 8.2758 52.9349 9.83571 52.9349 12.0586V18.5518H49.7635V12.7021C49.7635 11.6491 49.2382 10.9276 48.207 10.9276C47.1564 10.9276 46.4559 11.8051 46.4559 13.0335V18.5518H43.2844V8.56825Z" fill="#E60023"/>
<path d="M42.9388 5.89724C42.9388 4.84422 42.087 3.99069 41.0364 3.99069C39.9858 3.99069 39.134 4.84422 39.134 5.89724C39.134 6.95017 39.9858 7.8037 41.0364 7.8037C42.087 7.8037 42.9388 6.95017 42.9388 5.89724Z" fill="#E60023"/>
<path d="M75.2402 8.42405C75.1497 8.41589 75.0459 8.41225 74.9245 8.41225C73.7182 8.41225 72.9011 8.93871 72.2006 10.1282H72.1423V8.56826H69.107V18.5517H72.2784V14.067C72.2784 11.989 73.4267 11.0261 75.2402 11.1941V8.42405Z" fill="#E60023"/>
<path d="M90.8036 12.2535C89.5389 12.0196 88.4105 11.9221 88.4105 11.2202C88.4105 10.5961 89.0137 10.3037 89.7919 10.3037C90.6674 10.3037 91.2706 10.5766 91.3873 11.4736H94.3059C94.1502 9.50424 92.6326 8.27573 89.8115 8.27573C87.4571 8.27573 85.5114 9.3677 85.5114 11.4736C85.5114 13.8134 87.3598 14.2814 89.0915 14.574C90.4145 14.808 91.6208 14.9055 91.6208 15.8024C91.6208 16.4459 91.0177 16.7969 90.0643 16.7969C89.1078 16.7969 88.4752 16.3913 88.2813 15.5685H85.2593C85.4817 17.6208 87.2793 18.8638 90.0838 18.8638C92.691 18.8638 94.6172 17.7328 94.6172 15.549C94.6172 12.9945 92.5548 12.546 90.8036 12.2535Z" fill="#E60023"/>
<path d="M80.1599 10.5376C81.1911 10.5376 81.9304 11.2981 82.0472 12.4876H78.1169C78.3309 11.2981 78.9536 10.5376 80.1599 10.5376ZM80.335 16.5628C79.0313 16.5628 78.2921 15.7244 78.0974 14.3789H85.2576C85.277 12.3511 84.6934 10.6156 83.5064 9.52374C82.6503 8.74378 81.5219 8.27575 80.1014 8.27575C77.0662 8.27575 74.9844 10.5571 74.9844 13.5406C74.9844 16.5628 77.0079 18.8443 80.296 18.8443C81.5606 18.8443 82.5725 18.5128 83.4091 17.9278C84.2847 17.3234 84.8684 16.4654 85.0824 15.5685H81.9888C81.7163 16.1924 81.1717 16.5628 80.335 16.5628Z" fill="#E60023"/>
<path d="M100.203 16.1976C100.056 16.2034 99.8585 16.212 99.6772 16.212C98.9961 16.212 98.5682 16.0169 98.5682 15.2369V10.5571H100.203V8.56825H98.5682V5.40938H95.4745V8.56825H94.5011V10.5571H95.4745V15.9194C95.4745 18.0644 96.7976 18.6688 98.646 18.6688C99.3513 18.6688 99.8843 18.6159 100.203 18.5536V16.1976Z" fill="#E60023"/>
<path d="M58.5986 16.2021C58.4721 16.207 58.326 16.212 58.1896 16.212C57.5087 16.212 57.0806 16.0169 57.0806 15.2369V10.5571H58.5986V8.56824H57.0806V5.40938H53.987V8.56824H52.9554V10.5571H53.987V15.9194C53.987 18.0644 55.31 18.6688 57.1584 18.6688C57.7838 18.6688 58.2735 18.6271 58.5986 18.5742V16.2021Z" fill="#E60023"/>
<path d="M65.5066 12.4876C65.3899 11.2981 64.6504 10.5376 63.6192 10.5376C62.4129 10.5376 61.7903 11.2981 61.5762 12.4876H65.5066ZM58.4438 13.5405C58.4438 10.5571 60.5256 8.27582 63.5609 8.27582C64.9811 8.27582 66.1097 8.74375 66.9658 9.5237C68.1527 10.6157 68.7363 12.3511 68.7169 14.379H61.5569C61.7513 15.7244 62.4907 16.5629 63.7944 16.5629C64.6309 16.5629 65.1758 16.1924 65.4481 15.5685H68.5417C68.3277 16.4654 67.7441 17.3233 66.8684 17.9279C66.0319 18.5128 65.0201 18.8443 63.7554 18.8443C60.4672 18.8443 58.4438 16.5629 58.4438 13.5405Z" fill="#E60023"/>
<path d="M33.943 11.1617C35.1883 11.1617 35.8887 10.4207 35.8887 9.30912C35.8887 8.19777 35.1687 7.51529 33.943 7.51529H31.5108V11.1617H33.943ZM28.3 4.60992H33.8074C35.5 4.60992 36.7453 5.07786 37.6014 5.89686C38.4964 6.73524 39.0023 7.9248 39.0023 9.32869C39.0023 12 37.1539 13.8915 34.2937 13.8915H31.5108V18.5518H28.3V4.60992Z" fill="#E60023"/>
<path d="M23.9477 12C23.9477 18.6274 18.5868 24 11.9739 24C5.36091 24 0 18.6274 0 12C0 5.37252 5.36091 0 11.9739 0C18.5868 0 23.9477 5.37252 23.9477 12Z" fill="white"/>
<path d="M11.9739 0C5.36091 0 0 5.37252 0 12C0 17.0838 3.1547 21.4283 7.60887 23.1767C7.50424 22.2273 7.40962 20.7671 7.65039 19.7306C7.868 18.7941 9.05447 13.7659 9.05447 13.7659C9.05447 13.7659 8.69631 13.047 8.69631 11.9842C8.69631 10.3156 9.66135 9.06991 10.8629 9.06991C11.8845 9.06991 12.3779 9.83855 12.3779 10.7603C12.3779 11.7899 11.7238 13.3292 11.3863 14.7557C11.1042 15.9501 11.9839 16.9241 13.1594 16.9241C15.2876 16.9241 16.9235 14.6753 16.9235 11.4291C16.9235 8.55585 14.8634 6.54699 11.9219 6.54699C8.51492 6.54699 6.51516 9.10798 6.51516 11.7546C6.51516 12.786 6.9116 13.892 7.40629 14.4932C7.50414 14.612 7.51848 14.7161 7.48932 14.8374C7.39843 15.2164 7.19644 16.0315 7.15678 16.1983C7.10456 16.4179 6.98325 16.4646 6.75632 16.3587C5.26086 15.6611 4.32586 13.4699 4.32586 11.7099C4.32586 7.92453 7.07021 4.44813 12.2375 4.44813C16.3912 4.44813 19.6191 7.41449 19.6191 11.3788C19.6191 15.5144 17.0172 18.8428 13.4058 18.8428C12.1924 18.8428 11.0518 18.2111 10.6613 17.4649C10.6613 17.4649 10.0609 19.756 9.91537 20.3175C9.64505 21.3598 8.91529 22.6663 8.42717 23.4634C9.54749 23.811 10.7395 24 11.9739 24C18.5868 24 23.9477 18.6274 23.9477 12C23.9477 5.37252 18.5868 0 11.9739 0Z" fill="#E60023"/>
</svg>
