<svg width="27" height="27" viewBox="0 0 27 27" fill="none" xmlns="http://www.w3.org/2000/svg">
<path d="M7.61017 5.72455C7.86006 5.20237 8 4.61753 8 4C8 1.79086 6.20914 0 4 0C1.79086 0 0 1.79086 0 4C0 6.20914 1.79086 8 4 8C4.61753 8 5.20237 7.86006 5.72455 7.61017L7.7712 9.65681C7.07317 10.7107 6.66667 11.9746 6.66667 13.3333C6.66667 14.6921 7.07317 15.9559 7.7712 17.0099L6.02406 18.757C5.80376 18.6981 5.57221 18.6667 5.33333 18.6667C3.86057 18.6667 2.66667 19.8606 2.66667 21.3333C2.66667 22.8061 3.86057 24 5.33333 24C6.80609 24 8 22.8061 8 21.3333C8 21.0945 7.96859 20.8629 7.90968 20.6426L9.65681 18.8955C10.7107 19.5935 11.9746 20 13.3333 20C14.6921 20 15.9559 19.5935 17.0099 18.8955L19.0565 20.9421C18.8066 21.4643 18.6667 22.0491 18.6667 22.6667C18.6667 24.8758 20.4575 26.6667 22.6667 26.6667C24.8758 26.6667 26.6667 24.8758 26.6667 22.6667C26.6667 20.4575 24.8758 18.6667 22.6667 18.6667C22.0491 18.6667 21.4643 18.8066 20.9421 19.0565L18.8955 17.0099C19.5935 15.9559 20 14.6921 20 13.3333C20 11.9746 19.5935 10.7107 18.8955 9.65681L20.6426 7.90968C20.8629 7.96859 21.0945 8 21.3333 8C22.8061 8 24 6.80609 24 5.33333C24 3.86057 22.8061 2.66667 21.3333 2.66667C19.8606 2.66667 18.6667 3.86057 18.6667 5.33333C18.6667 5.57221 18.6981 5.80376 18.757 6.02406L17.0099 7.7712C15.9559 7.07317 14.6921 6.66667 13.3333 6.66667C11.9746 6.66667 10.7107 7.07317 9.65681 7.7712L7.61017 5.72455Z" fill="white"/>
</svg>
